<svg width="14" height="16" viewBox="0 0 14 16" fill="none" xmlns="http://www.w3.org/2000/svg">
<g clip-path="url(#clip0_5658_3160)">
<path d="M11.2224 8.45105C11.2441 10.6302 13.2763 11.3554 13.2988 11.3647C13.2816 11.4158 12.9741 12.3981 12.2282 13.4127C11.5833 14.29 10.914 15.1639 9.85976 15.182C8.82381 15.1998 8.4907 14.6103 7.30632 14.6103C6.12229 14.6103 5.75219 15.164 4.77155 15.1998C3.75389 15.2357 2.97893 14.2513 2.32875 13.3772C1.00013 11.5894 -0.0152029 8.32534 1.34814 6.12202C2.02542 5.02784 3.23577 4.33496 4.54949 4.3172C5.54881 4.29945 6.49201 4.94294 7.10293 4.94294C7.71347 4.94294 8.85967 4.16909 10.0647 4.28274C10.5691 4.30228 11.9851 4.4724 12.8944 5.71113C12.8211 5.7534 11.2048 6.62918 11.2224 8.45105ZM9.27541 3.09996C9.81569 2.49126 10.1793 1.6439 10.0801 0.800781C9.30135 0.829914 8.35964 1.28379 7.80104 1.89216C7.30043 2.43089 6.86201 3.29316 6.9803 4.11959C7.84834 4.1821 8.7351 3.70904 9.27541 3.09996Z" fill="#C2C2C2"/>
</g>
<defs>
<clipPath id="clip0_5658_3160">
<rect width="12.6" height="14.4" fill="white" transform="translate(0.700195 0.799805)"/>
</clipPath>
</defs>
</svg>
