<svg width="15" height="16" viewBox="0 0 15 16" fill="none" xmlns="http://www.w3.org/2000/svg">
<path d="M4.76587 4.46608L5.36889 3.86307C5.59502 3.63693 5.59502 3.26005 5.36889 3.03392L2.57995 0.169598C2.35381 -0.0565327 1.97693 -0.0565327 1.7508 0.169598L0.167885 1.75251L0.092508 1.82789C-0.359753 4.84297 0.846277 8.53643 3.7106 11.3254C6.49954 14.1143 10.193 15.3957 13.2081 14.9435L13.2835 14.8681L14.791 13.3606C15.0171 13.1344 15.0171 12.7575 14.791 12.5314L11.9267 9.66709C11.7005 9.44096 11.3237 9.44096 11.0975 9.66709L9.8915 10.8731C9.66537 11.0992 9.28849 11.0992 9.06236 10.8731L4.6905 6.42588L4.38899 6.12437C4.38899 6.12437 4.31361 6.049 4.16286 5.89824C3.78598 5.52136 4.01211 5.14447 4.23824 4.91834C4.31361 4.84297 4.46437 4.69221 4.61512 4.61683C4.91663 4.31533 4.76587 4.46608 4.76587 4.46608Z" fill="#00D6E3"/>
</svg>
