<svg width="32" height="32" viewBox="0 0 32 32" fill="none" xmlns="http://www.w3.org/2000/svg">
<circle cx="15.9998" cy="15.9993" r="13.3333" fill="#EAEAEA"/>
<path d="M16.1393 14.6465C15.8093 14.7563 15.5013 14.9417 15.2343 15.2087L11.6788 18.7642C10.7737 19.6693 10.7737 21.2208 11.6788 22.1258C12.5838 23.0308 14.1353 23.0308 15.0403 22.1258L18.5958 18.5703C18.9989 18.1673 19.2158 17.6711 19.268 17.1464" stroke="white" stroke-miterlimit="10" stroke-linecap="round"/>
<path d="M16.4635 16.9129C16.7691 16.8009 17.0544 16.6227 17.3039 16.3732L20.8594 12.8177C21.7644 11.9126 21.7644 10.3612 20.8594 9.45612C19.9544 8.55108 18.4029 8.55108 17.4978 9.45612L13.9424 13.0116C13.5874 13.3666 13.3768 13.7938 13.2959 14.2491" stroke="white" stroke-miterlimit="10" stroke-linecap="round"/>
</svg>
