<svg width="252" height="230" viewBox="0 0 252 230" fill="none" xmlns="http://www.w3.org/2000/svg">
<ellipse opacity="0.3" cx="220.394" cy="77.8423" rx="8.61074" ry="8.6001" fill="#00D6E3"/>
<path fill-rule="evenodd" clip-rule="evenodd" d="M26 62.9256C26 55.6948 31.89 49.9629 39.1007 49.9629H118.546C125.909 49.9629 131.79 55.7043 131.79 62.9256V77.5301C131.79 78.3585 132.461 79.0301 133.29 79.0301C134.118 79.0301 134.79 78.3585 134.79 77.5301V62.9256C134.79 53.9827 127.501 46.9629 118.546 46.9629H39.1007C30.2793 46.9629 23 53.9921 23 62.9256V151.829C23 154.521 26.115 156.313 28.3453 154.38L28.3927 154.339L28.4365 154.294L49.0142 133.203C50.3547 132.008 51.8589 131.351 53.5583 131.351H60.143H66.2982H73.7417H95.7168V136.934V142.748V150.546V154.091C95.7168 161.881 102.128 168.211 109.957 168.211H149.178H155.763H161.202H166.928C168.394 168.211 169.728 168.763 170.732 169.754L188.759 188.178L188.808 188.227L188.86 188.272C190.78 189.902 193.908 188.622 193.908 185.994V108.151C193.908 100.361 187.497 94.0314 179.668 94.0314H109.957C102.128 94.0314 95.7168 100.361 95.7168 108.151V128.351H73.7417H66.2982H60.143H53.5583C50.9781 128.351 48.7719 129.384 46.9719 131.005L46.9359 131.037L46.9021 131.072L26.3492 152.138C26.3084 152.166 26.2814 152.171 26.2684 152.172C26.2452 152.175 26.21 152.171 26.1677 152.151C26.1254 152.13 26.0848 152.095 26.0549 152.047C26.0278 152.004 26 151.937 26 151.829V62.9256ZM98.7173 129.866L98.7174 129.851C98.7174 129.837 98.7172 129.822 98.7168 129.808V129.278V108.151C98.7168 102.045 103.758 97.0314 109.957 97.0314H179.668C185.867 97.0314 190.908 102.045 190.908 108.151V185.976L190.904 185.978L190.901 185.981L190.896 185.984C190.893 185.985 190.89 185.987 190.887 185.988C190.861 186 190.839 186.001 190.828 185.999L190.825 185.999L172.867 167.647L172.859 167.638L172.851 167.63C171.278 166.073 169.18 165.211 166.928 165.211H161.202H155.763H149.178H109.957C103.758 165.211 98.7168 160.197 98.7168 154.091V150.546V142.748V136.934V129.894L98.7173 129.866ZM48.6211 77.953C48.6211 77.1245 49.2927 76.453 50.1211 76.453H107.522C108.35 76.453 109.022 77.1245 109.022 77.953C109.022 78.7814 108.35 79.453 107.522 79.453H50.1211C49.2927 79.453 48.6211 78.7814 48.6211 77.953ZM50.1211 96.7253C49.2927 96.7253 48.6211 97.3968 48.6211 98.2253C48.6211 99.0537 49.2927 99.7253 50.1211 99.7253H74.4557C75.2841 99.7253 75.9557 99.0537 75.9557 98.2253C75.9557 97.3968 75.2841 96.7253 74.4557 96.7253H50.1211ZM119.908 119.645C119.908 118.817 120.58 118.145 121.408 118.145H168.073C168.902 118.145 169.573 118.817 169.573 119.645C169.573 120.474 168.902 121.145 168.073 121.145H121.408C120.58 121.145 119.908 120.474 119.908 119.645ZM148.318 139.832C147.49 139.832 146.818 140.503 146.818 141.332C146.818 142.16 147.49 142.832 148.318 142.832H168.074C168.902 142.832 169.574 142.16 169.574 141.332C169.574 140.503 168.902 139.832 168.074 139.832H148.318Z" fill="#D1D1D1"/>
<ellipse cx="45.3088" cy="172.448" rx="5.74049" ry="5.7334" fill="#00D6E3"/>
<path fill-rule="evenodd" clip-rule="evenodd" d="M205.328 42.6929L201.028 46.9865C200.64 47.3737 200.012 47.3737 199.624 46.9865C199.236 46.5992 199.236 45.9713 199.624 45.5841L203.923 41.2904C204.311 40.9032 204.94 40.9032 205.328 41.2904C205.715 41.6777 205.715 42.3056 205.328 42.6929ZM193.813 45.5841L189.514 41.2908C189.126 40.9035 188.498 40.9035 188.11 41.2908C187.722 41.678 187.722 42.3059 188.11 42.6932L192.409 46.9865C192.797 47.3737 193.426 47.3737 193.813 46.9865C194.201 46.5992 194.201 45.9713 193.813 45.5841ZM205.327 57.0828L201.028 52.7895C200.64 52.4023 200.011 52.4023 199.624 52.7895C199.236 53.1768 199.236 53.8047 199.624 54.192L203.923 58.4852C204.31 58.8725 204.939 58.8725 205.327 58.4852C205.715 58.098 205.715 57.4701 205.327 57.0828ZM189.513 58.4852L193.812 54.1916C194.2 53.8044 194.2 53.1765 193.812 52.7892C193.424 52.4019 192.796 52.4019 192.408 52.7892L188.108 57.0828C187.72 57.4701 187.72 58.098 188.108 58.4852C188.496 58.8725 189.125 58.8725 189.513 58.4852Z" fill="#00D6E3"/>
</svg>
