<svg width="80" height="72" viewBox="0 0 80 72" fill="none" xmlns="http://www.w3.org/2000/svg">
<path d="M65.0806 26.9233H43.9385" stroke="white" stroke-width="3" stroke-miterlimit="10" stroke-linecap="round"/>
<path d="M53.1312 37.7265C53.3848 38.7943 53.5116 39.8934 53.5116 40.9926C53.5116 48.7809 47.1404 55.0932 39.2795 55.0932C31.4186 55.0932 25.0791 48.7809 25.0791 41.024C25.0791 33.2357 31.4503 26.9233 39.3112 26.9233" stroke="white" stroke-width="3" stroke-miterlimit="10" stroke-linecap="round"/>
<path d="M48.915 43.5993L52.7504 37.8208C53.0991 37.2869 53.9232 37.2869 54.2719 37.8208L58.1072 43.5993" stroke="white" stroke-width="3" stroke-miterlimit="10" stroke-linecap="round"/>
<path d="M19.3115 19.7349L17.734 18.1793" stroke="white" stroke-width="2" stroke-linecap="round"/>
<path d="M23.5381 23.9009L21.9606 22.3453" stroke="white" stroke-width="2" stroke-linecap="round"/>
<path d="M21.959 19.7344L23.5366 18.1788" stroke="white" stroke-width="2" stroke-linecap="round"/>
<path d="M17.7344 23.9014L19.312 22.3458" stroke="white" stroke-width="2" stroke-linecap="round"/>
<ellipse opacity="0.5" cx="16.5085" cy="32.2437" rx="2.85714" ry="2.81739" fill="white"/>
<ellipse opacity="0.5" cx="64.7621" cy="51.0262" rx="1.5873" ry="1.56521" fill="white"/>
</svg>
