<svg width="252" height="230" viewBox="0 0 252 230" fill="none" xmlns="http://www.w3.org/2000/svg">
<path fill-rule="evenodd" clip-rule="evenodd" d="M109.583 42C108.755 42 108.083 42.6716 108.083 43.5C108.083 44.3284 108.755 45 109.583 45H124.71V60.8597C92.0322 63.1878 66.1221 90.6879 66.1221 124.35C66.1221 127.145 66.2602 129.979 66.6851 132.695C66.8132 133.513 67.5805 134.073 68.3989 133.945C69.2174 133.817 69.7771 133.049 69.649 132.231C69.2565 129.722 69.1221 127.056 69.1221 124.35C69.1221 90.7928 96.12 63.7 129.207 63.7C162.292 63.7 189.292 90.9281 189.292 124.35C189.292 157.775 162.426 185 129.207 185C128.379 185 127.707 185.672 127.707 186.5C127.707 187.329 128.379 188 129.207 188C164.113 188 192.292 159.401 192.292 124.35C192.292 89.2971 163.975 60.7 129.207 60.7C128.707 60.7 128.208 60.7059 127.71 60.7177V45H142.828C143.657 45 144.328 44.3284 144.328 43.5C144.328 42.6716 143.657 42 142.828 42H126.21H109.583ZM48.001 168.088C47.1726 168.088 46.501 168.76 46.501 169.588C46.501 170.417 47.1726 171.088 48.001 171.088H129.166C129.178 171.088 129.19 171.089 129.202 171.089C129.269 171.089 129.336 171.088 129.403 171.088H132.749C133.019 171.088 133.272 171.017 133.491 170.892C157.109 168.715 175.529 148.734 175.529 124.351C175.529 98.5104 154.841 77.6133 129.202 77.6133C103.563 77.6133 82.876 98.5104 82.876 124.351C82.876 128.179 83.2981 131.733 84.1429 135.286C84.3346 136.091 85.1433 136.589 85.9493 136.398C86.7552 136.206 87.2532 135.397 87.0615 134.591C86.2714 131.269 85.876 127.948 85.876 124.351C85.876 100.141 105.246 80.6133 129.202 80.6133C153.159 80.6133 172.529 100.141 172.529 124.351C172.529 148.496 153.262 167.984 129.395 168.088H48.001ZM47.8623 152.538C47.8623 151.71 48.5339 151.038 49.3623 151.038H109.585C110.413 151.038 111.085 151.71 111.085 152.538C111.085 153.367 110.413 154.038 109.585 154.038H49.3623C48.5339 154.038 47.8623 153.367 47.8623 152.538ZM28.9229 151.038C28.0944 151.038 27.4229 151.71 27.4229 152.538C27.4229 153.367 28.0944 154.038 28.9229 154.038H37.9154C38.7438 154.038 39.4154 153.367 39.4154 152.538C39.4154 151.71 38.7438 151.038 37.9154 151.038H28.9229ZM128.935 96.714C128.935 95.8856 128.263 95.214 127.435 95.214C126.606 95.214 125.935 95.8856 125.935 96.714V124.077V125.577H127.435H146.646C147.474 125.577 148.146 124.905 148.146 124.077C148.146 123.248 147.474 122.577 146.646 122.577H128.935V96.714Z" fill="#D1D1D1"/>
<path fill-rule="evenodd" clip-rule="evenodd" d="M220.841 93.9714L215.289 88.4119C214.901 88.0241 214.273 88.0241 213.886 88.4119C213.499 88.7997 213.499 89.4284 213.886 89.8162L219.438 95.3757C219.826 95.7635 220.454 95.7635 220.841 95.3757C221.228 94.9879 221.228 94.3592 220.841 93.9714ZM235.713 108.861L230.16 103.302C229.773 102.914 229.145 102.914 228.758 103.302C228.37 103.69 228.37 104.318 228.758 104.706L234.31 110.265C234.698 110.653 235.326 110.653 235.713 110.265C236.1 109.878 236.1 109.249 235.713 108.861ZM235.714 89.8172L230.161 95.3767C229.774 95.7644 229.146 95.7644 228.759 95.3767C228.371 94.9889 228.371 94.3602 228.759 93.9724L234.311 88.4129C234.698 88.0251 235.326 88.0251 235.714 88.4129C236.101 88.8007 236.101 89.4294 235.714 89.8172ZM215.285 110.266L220.835 104.704C221.222 104.316 221.222 103.687 220.835 103.299C220.448 102.911 219.82 102.911 219.433 103.299L213.883 108.861C213.496 109.249 213.496 109.878 213.883 110.266C214.27 110.654 214.898 110.654 215.285 110.266Z" fill="#00D6E3"/>
<ellipse opacity="0.3" cx="200.993" cy="68.6969" rx="8.16148" ry="8.17149" fill="#00D6E3"/>
<ellipse cx="21.441" cy="172.2" rx="5.44098" ry="5.44766" fill="#00D6E3"/>
</svg>
