<svg width="252" height="230" viewBox="0 0 252 230" fill="none" xmlns="http://www.w3.org/2000/svg">
<path d="M205.003 86.0059H138.405" stroke="white" stroke-width="3" stroke-miterlimit="10" stroke-linecap="round"/>
<path d="M167.361 120.516C168.16 123.927 168.559 127.438 168.559 130.949C168.559 155.829 148.49 175.993 123.728 175.993C98.9663 175.993 78.9971 155.829 78.9971 131.05C78.9971 106.17 99.0662 86.0059 123.828 86.0059" stroke="white" stroke-width="3" stroke-miterlimit="10" stroke-linecap="round"/>
<path d="M154.081 139.277L166.162 120.818C167.261 119.113 169.857 119.113 170.955 120.818L183.037 139.277" stroke="white" stroke-width="3" stroke-miterlimit="10" stroke-linecap="round"/>
<path d="M60.8301 63.041L55.8609 58.0719" stroke="white" stroke-width="2" stroke-linecap="round"/>
<path d="M74.1416 76.3496L69.1725 71.3805" stroke="white" stroke-width="2" stroke-linecap="round"/>
<path d="M69.1689 63.041L74.1383 58.0717" stroke="white" stroke-width="2" stroke-linecap="round"/>
<path d="M55.8613 76.3496L60.8307 71.3803" stroke="white" stroke-width="2" stroke-linecap="round"/>
<circle opacity="0.5" cx="52" cy="103" r="9" fill="white"/>
<circle opacity="0.5" cx="204" cy="163" r="5" fill="white"/>
</svg>
