<svg width="80" height="72" viewBox="0 0 80 72" fill="none" xmlns="http://www.w3.org/2000/svg">
<ellipse opacity="0.5" cx="59.5235" cy="30.5236" rx="2.38095" ry="2.34783" fill="white"/>
<path fill-rule="evenodd" clip-rule="evenodd" d="M22.0436 17.127C22.872 17.127 23.5436 17.7985 23.5436 18.627V22.593C23.5436 23.4215 22.872 24.093 22.0436 24.093C21.2151 24.093 20.5436 23.4215 20.5436 22.593V22.3526H16.1909C15.6912 22.3526 15.3096 22.7295 15.3096 23.2404V27.649H50.0874V23.2404C50.0874 22.7295 49.7058 22.3526 49.2061 22.3526H45.0086C44.1802 22.3526 43.5086 21.6811 43.5086 20.8526C43.5086 20.0242 44.1802 19.3526 45.0086 19.3526H49.2061C51.3703 19.3526 53.0874 21.0802 53.0874 23.2404V29.028V29.149V30.649V53.5125C53.0874 55.3084 51.6528 56.7528 49.8519 56.7528H15.5451C13.7442 56.7528 12.3096 55.3084 12.3096 53.5125V30.649V29.149V29.028V23.2404C12.3096 21.0803 14.0267 19.3526 16.1909 19.3526H20.5436V18.627C20.5436 17.7985 21.2151 17.127 22.0436 17.127ZM15.3096 30.649V53.5125C15.3096 53.5944 15.3391 53.6504 15.3762 53.6877C15.4132 53.7248 15.4672 53.7528 15.5451 53.7528H49.8519C49.9298 53.7528 49.9838 53.7248 50.0208 53.6877C50.058 53.6504 50.0874 53.5944 50.0874 53.5125V30.649H15.3096ZM25.4674 20.8534C25.4674 20.025 26.139 19.3534 26.9674 19.3534H38.7053V18.627C38.7053 17.7985 39.3768 17.127 40.2053 17.127C41.0337 17.127 41.7053 17.7985 41.7053 18.627V22.593C41.7053 23.4215 41.0337 24.093 40.2053 24.093C39.3768 24.093 38.7053 23.4215 38.7053 22.593V22.3534H26.9674C26.139 22.3534 25.4674 21.6818 25.4674 20.8534ZM22.763 38.7005C22.763 37.872 23.4346 37.2005 24.263 37.2005H41.1743C42.0027 37.2005 42.6743 37.872 42.6743 38.7005C42.6743 39.5289 42.0027 40.2005 41.1743 40.2005H24.263C23.4346 40.2005 22.763 39.5289 22.763 38.7005ZM24.263 43.9188C23.4346 43.9188 22.763 44.5903 22.763 45.4188C22.763 46.2472 23.4346 46.9188 24.263 46.9188H33.7075C34.5359 46.9188 35.2075 46.2472 35.2075 45.4188C35.2075 44.5903 34.5359 43.9188 33.7075 43.9188H24.263Z" fill="white"/>
<path fill-rule="evenodd" clip-rule="evenodd" d="M62.431 17.597L60.7045 15.8937C60.3143 15.5088 59.6818 15.5088 59.2916 15.8937C58.9015 16.2785 58.9015 16.9026 59.2916 17.2875L61.0182 18.9908C61.4083 19.3757 62.0409 19.3757 62.431 18.9908C62.8212 18.6059 62.8212 17.9819 62.431 17.597ZM67.0589 22.159L65.3321 20.4559C64.9419 20.0711 64.3092 20.0711 63.919 20.4559C63.5288 20.8407 63.5288 21.4647 63.919 21.8495L65.6459 23.5526C66.0361 23.9374 66.6687 23.9374 67.0589 23.5526C67.4491 23.1678 67.4491 22.5438 67.0589 22.159ZM67.0572 17.2876L65.3304 18.9907C64.9402 19.3755 64.3075 19.3755 63.9173 18.9907C63.5271 18.6059 63.5271 17.9819 63.9173 17.5971L65.6441 15.894C66.0343 15.5092 66.667 15.5092 67.0572 15.894C67.4474 16.2788 67.4474 16.9028 67.0572 17.2876ZM60.7049 23.5526L62.4318 21.8495C62.822 21.4647 62.822 20.8408 62.4318 20.456C62.0416 20.0711 61.4089 20.0711 61.0187 20.456L59.2918 22.159C58.9016 22.5438 58.9016 23.1678 59.2918 23.5526C59.682 23.9374 60.3147 23.9374 60.7049 23.5526Z" fill="white"/>
</svg>
