<svg width="252" height="230" viewBox="0 0 252 230" fill="none" xmlns="http://www.w3.org/2000/svg">
<circle opacity="0.5" cx="187.5" cy="97.5" r="7.5" fill="white"/>
<path fill-rule="evenodd" clip-rule="evenodd" d="M69.4369 58C70.2653 58 70.9369 58.6716 70.9369 59.5V72.1694C70.9369 72.9979 70.2653 73.6694 69.4369 73.6694C68.6084 73.6694 67.9369 72.9979 67.9369 72.1694V68.1117H51.0011C47.6575 68.1117 45 70.7776 45 74.2392V91.614H161V74.2392C161 70.7776 158.343 68.1117 154.999 68.1117H141.777C140.949 68.1117 140.277 67.4401 140.277 66.6117C140.277 65.7832 140.949 65.1117 141.777 65.1117H154.999C160.047 65.1117 164 69.1682 164 74.2392V92.726V93.114V94.614V170.94C164 174.848 160.937 177.999 157.033 177.999H48.9669C45.0636 177.999 42 174.848 42 170.94V94.614V93.114V92.726V74.2392C42 69.1682 45.9536 65.1117 51.0011 65.1117H67.9369V59.5C67.9369 58.6716 68.6084 58 69.4369 58ZM83.4471 66.6113C83.4471 65.7829 84.1187 65.1113 84.9471 65.1113H124.995C125.046 65.1113 125.097 65.1139 125.146 65.1188V59.5C125.146 58.6716 125.818 58 126.646 58C127.475 58 128.146 58.6716 128.146 59.5V72.1694C128.146 72.9979 127.475 73.6694 126.646 73.6694C125.818 73.6694 125.146 72.9979 125.146 72.1694V68.1038C125.097 68.1088 125.046 68.1113 124.995 68.1113H84.9471C84.1187 68.1113 83.4471 67.4398 83.4471 66.6113ZM45 94.614V170.94C45 173.238 46.7676 174.999 48.9669 174.999H157.033C159.233 174.999 161 173.238 161 170.94V94.614H45ZM74.9284 123.625C74.9284 122.797 75.6 122.125 76.4284 122.125H129.699C130.527 122.125 131.199 122.797 131.199 123.625C131.199 124.453 130.527 125.125 129.699 125.125H76.4284C75.6 125.125 74.9284 124.453 74.9284 123.625ZM76.4284 143.585C75.6 143.585 74.9284 144.257 74.9284 145.085C74.9284 145.913 75.6 146.585 76.4284 146.585H106.178C107.007 146.585 107.678 145.913 107.678 145.085C107.678 144.257 107.007 143.585 106.178 143.585H76.4284Z" fill="white"/>
<path fill-rule="evenodd" clip-rule="evenodd" d="M195.132 57.7318L189.694 52.2907C189.306 51.9031 188.678 51.9031 188.291 52.2907C187.903 52.6783 187.903 53.3068 188.291 53.6944L193.729 59.1355C194.117 59.5232 194.745 59.5232 195.132 59.1355C195.52 58.7479 195.52 58.1195 195.132 57.7318ZM209.711 72.3061L204.271 66.8658C203.883 66.4782 203.255 66.4782 202.868 66.8658C202.48 67.2533 202.48 67.8817 202.868 68.2693L208.307 73.7096C208.695 74.0972 209.323 74.0972 209.71 73.7096C210.098 73.322 210.098 72.6937 209.711 72.3061ZM209.705 53.6951L204.265 59.1354C203.878 59.523 203.249 59.523 202.862 59.1354C202.474 58.7479 202.474 58.1195 202.862 57.7319L208.301 52.2916C208.689 51.904 209.317 51.904 209.705 52.2916C210.092 52.6792 210.092 53.3075 209.705 53.6951ZM189.695 73.7096L195.135 68.2693C195.522 67.8818 195.522 67.2534 195.135 66.8659C194.747 66.4783 194.119 66.4783 193.731 66.8659L188.292 72.3061C187.904 72.6937 187.904 73.322 188.292 73.7096C188.679 74.0971 189.307 74.0971 189.695 73.7096Z" fill="white"/>
</svg>
