<svg width="80" height="70" viewBox="0 0 80 70" fill="none" xmlns="http://www.w3.org/2000/svg">
<ellipse opacity="0.3" cx="69.966" cy="23.6912" rx="2.73356" ry="2.61742" fill="#00D6E3"/>
<path fill-rule="evenodd" clip-rule="evenodd" d="M9.27734 19.1517C9.27734 17.6018 10.6123 16.25 12.4125 16.25H37.6332C39.4886 16.25 40.8138 17.611 40.8138 19.1517V23.5965C40.8138 24.425 41.4854 25.0965 42.3138 25.0965C43.1422 25.0965 43.8138 24.425 43.8138 23.5965V19.1517C43.8138 15.7729 40.9582 13.25 37.6332 13.25H12.4125C9.1231 13.25 6.27734 15.7821 6.27734 19.1517V46.2092C6.27734 47.9331 8.28742 48.9223 9.64484 47.7944L9.69292 47.7544L9.73751 47.7106L16.2419 41.3194C16.5008 41.1053 16.7444 41.0203 17.0022 41.0203H19.0926H21.0466H23.4096H29.3621V41.676V43.4453V45.8188V46.8976C29.3621 49.9127 31.9254 52.2383 34.9065 52.2383H47.3578H49.4482H51.175H52.9927C53.2084 52.2383 53.3781 52.3128 53.4987 52.4245L59.2137 58.0239L59.2631 58.0722L59.3166 58.1158C59.961 58.6403 60.7695 58.6624 61.3793 58.4027C61.9882 58.1436 62.5815 57.5132 62.5815 56.6072V32.9158C62.5815 29.9007 60.0182 27.5751 57.0371 27.5751H34.9065C31.9254 27.5751 29.3621 29.9007 29.3621 32.9158V38.0203H23.4096H21.0466H19.0926H17.0022C15.9072 38.0203 14.9787 38.4461 14.2497 39.0753L14.2131 39.107L14.1786 39.1408L9.27734 43.9569V19.1517ZM32.3621 39.5405L32.3622 39.5203L32.3621 39.5001V39.3457V32.9158C32.3621 31.7018 33.4342 30.5751 34.9065 30.5751H57.0371C58.5093 30.5751 59.5815 31.7018 59.5815 32.9158V54.1842L55.5875 50.271L55.5791 50.2628L55.5707 50.2548C54.8736 49.5929 53.9549 49.2383 52.9927 49.2383H51.175H49.4482H47.3578H34.9065C33.4342 49.2383 32.3621 48.1116 32.3621 46.8976V45.8188V43.4453V41.676V39.5405ZM14.411 23.7261C14.411 22.8977 15.0825 22.2261 15.911 22.2261H34.1335C34.9619 22.2261 35.6335 22.8977 35.6335 23.7261C35.6335 24.5546 34.9619 25.2261 34.1335 25.2261H15.911C15.0825 25.2261 14.411 24.5546 14.411 23.7261ZM15.911 28.3949C15.0825 28.3949 14.411 29.0665 14.411 29.8949C14.411 30.7233 15.0825 31.3949 15.911 31.3949H23.6362C24.4647 31.3949 25.1362 30.7233 25.1362 29.8949C25.1362 29.0665 24.4647 28.3949 23.6362 28.3949H15.911ZM37.0419 36.4138C37.0419 35.5854 37.7135 34.9138 38.5419 34.9138H53.3562C54.1847 34.9138 54.8562 35.5854 54.8562 36.4138C54.8562 37.2423 54.1847 37.9138 53.3562 37.9138H38.5419C37.7135 37.9138 37.0419 37.2423 37.0419 36.4138ZM47.0848 41.5152C46.2564 41.5152 45.5848 42.1868 45.5848 43.0152C45.5848 43.8436 46.2564 44.5152 47.0848 44.5152H53.3563C54.1847 44.5152 54.8563 43.8436 54.8563 43.0152C54.8563 42.1868 54.1847 41.5152 53.3563 41.5152H47.0848Z" fill="#D1D1D1"/>
<ellipse cx="14.3839" cy="52.4842" rx="1.82238" ry="1.74495" fill="#00D6E3"/>
<path fill-rule="evenodd" clip-rule="evenodd" d="M65.6769 13.4668L64.312 14.7736C63.9161 15.1526 63.2743 15.1526 62.8784 14.7736C62.4826 14.3946 62.4826 13.7801 62.8784 13.4011L64.2433 12.0943C64.6392 11.7153 65.281 11.7153 65.6769 12.0943C66.0728 12.4733 66.0728 13.0878 65.6769 13.4668ZM62.0215 13.4011L60.6567 12.0944C60.2608 11.7154 59.619 11.7154 59.2231 12.0944C58.8273 12.4734 58.8273 13.0879 59.2231 13.4669L60.5879 14.7736C60.9838 15.1526 61.6256 15.1526 62.0215 14.7736C62.4174 14.3946 62.4174 13.7801 62.0215 13.4011ZM65.6769 16.8998L64.3121 15.5932C63.9163 15.2142 63.2744 15.2142 62.8786 15.5932C62.4827 15.9722 62.4827 16.5867 62.8786 16.9657L64.2433 18.2724C64.6392 18.6514 65.281 18.6514 65.6769 18.2724C66.0728 17.8933 66.0728 17.2789 65.6769 16.8998ZM60.6563 18.2723L62.0212 16.9656C62.4171 16.5866 62.4171 15.9721 62.0212 15.5931C61.6253 15.2141 60.9835 15.2141 60.5876 15.5931L59.2227 16.8999C58.8268 17.2789 58.8268 17.8933 59.2227 18.2723C59.6186 18.6514 60.2604 18.6514 60.6563 18.2723Z" fill="#00D6E3"/>
</svg>
