<svg width="80" height="72" viewBox="0 0 80 72" fill="none" xmlns="http://www.w3.org/2000/svg">
<path fill-rule="evenodd" clip-rule="evenodd" d="M34.788 6.60059C33.9595 6.60059 33.288 7.27216 33.288 8.10059C33.288 8.92901 33.9595 9.60059 34.788 9.60059H38.5663V12.5958C28.1232 13.8048 19.9671 22.6417 19.9671 33.4105C19.9671 34.3167 20.0122 35.2624 20.1586 36.1851C20.2884 37.0033 21.057 37.5614 21.8751 37.4315C22.6933 37.3017 23.2514 36.5332 23.1216 35.715C23.0084 35.0021 22.9671 34.226 22.9671 33.4105C22.9671 23.4871 31.067 15.4548 41.0179 15.4548C50.9666 15.4548 59.0687 23.5279 59.0687 33.4105C59.0687 43.2952 51.0077 51.3662 41.0179 51.3662C40.1895 51.3662 39.5179 52.0378 39.5179 52.8662C39.5179 53.6946 40.1895 54.3662 41.0179 54.3662C52.6551 54.3662 62.0687 44.9615 62.0687 33.4105C62.0687 22.0401 52.9066 12.7528 41.5663 12.4618V9.60059H45.342C46.1704 9.60059 46.842 8.92901 46.842 8.10059C46.842 7.27216 46.1704 6.60059 45.342 6.60059H40.0663H34.788ZM15.2383 46.0707C14.4099 46.0707 13.7383 46.7422 13.7383 47.5707C13.7383 48.3991 14.4099 49.0707 15.2383 49.0707H40.9545C40.9652 49.0711 40.9759 49.0714 40.9866 49.0716C40.9965 49.0718 41.0065 49.0719 41.0165 49.0719C41.0422 49.0719 41.0679 49.0719 41.0936 49.0717C41.1351 49.0715 41.1766 49.0712 41.2181 49.0707H42.1423C42.3111 49.0707 42.4734 49.0428 42.6248 48.9914C50.5618 48.1919 56.747 41.5383 56.747 33.4106C56.747 24.7413 49.7102 17.7492 41.0165 17.7492C32.3227 17.7492 25.2859 24.7413 25.2859 33.4106C25.2859 34.6899 25.4294 35.8841 25.717 37.0766C25.9112 37.8819 26.7215 38.3773 27.5268 38.1831C28.3322 37.9889 28.8276 37.1786 28.6334 36.3732C28.4019 35.4136 28.2859 34.4556 28.2859 33.4106C28.2859 26.4119 33.9657 20.7492 41.0165 20.7492C48.0672 20.7492 53.747 26.4119 53.747 33.4106C53.747 40.349 48.1645 45.9744 41.1982 46.0707H15.2383ZM14.1703 42.2334C14.1703 41.405 14.8419 40.7334 15.6703 40.7334H34.7886C35.6171 40.7334 36.2886 41.405 36.2886 42.2334C36.2886 43.0619 35.6171 43.7334 34.7886 43.7334H15.6703C14.8419 43.7334 14.1703 43.0619 14.1703 42.2334ZM9.18164 40.7334C8.35321 40.7334 7.68164 41.405 7.68164 42.2334C7.68164 43.0619 8.35321 43.7334 9.18164 43.7334H12.0364C12.8648 43.7334 13.5364 43.0619 13.5364 42.2334C13.5364 41.405 12.8648 40.7334 12.0364 40.7334H9.18164ZM41.9552 24.7587C41.9552 23.9303 41.2836 23.2587 40.4552 23.2587C39.6268 23.2587 38.9552 23.9303 38.9552 24.7587V33.3244V34.8244H40.4552H46.554C47.3824 34.8244 48.054 34.1528 48.054 33.3244C48.054 32.496 47.3824 31.8244 46.554 31.8244H41.9552V24.7587Z" fill="#D1D1D1"/>
<path fill-rule="evenodd" clip-rule="evenodd" d="M75.3126 23.0772L73.5499 24.8176C73.1599 25.2026 72.5276 25.2026 72.1376 24.8176C71.7476 24.4325 71.7476 23.8082 72.1376 23.4232L73.9003 21.6828C74.2903 21.2978 74.9226 21.2978 75.3126 21.6828C75.7026 22.0679 75.7026 22.6922 75.3126 23.0772ZM70.5909 23.4233L68.8283 21.6829C68.4383 21.2979 67.806 21.2979 67.416 21.6829C67.026 22.068 67.026 22.6923 67.416 23.0774L69.1787 24.8177C69.5687 25.2028 70.201 25.2028 70.5909 24.8177C70.9809 24.4327 70.9809 23.8084 70.5909 23.4233ZM75.3124 28.0842L73.5496 26.3439C73.1596 25.9589 72.5272 25.9589 72.1372 26.3439C71.7472 26.729 71.7472 27.3532 72.1372 27.7382L73.9 29.4785C74.29 29.8635 74.9224 29.8635 75.3124 29.4785C75.7024 29.0935 75.7024 28.4692 75.3124 28.0842ZM68.8271 29.4789L70.5889 27.7377C70.9788 27.3525 70.9788 26.7279 70.5889 26.3426C70.1991 25.9574 69.5671 25.9574 69.1773 26.3426L67.4154 28.0838C67.0256 28.4691 67.0256 29.0937 67.4154 29.4789C67.8052 29.8641 68.4372 29.8641 68.8271 29.4789Z" fill="#00D6E3"/>
<ellipse opacity="0.3" cx="63.8068" cy="15.9887" rx="2.59094" ry="2.55803" fill="#00D6E3"/>
<ellipse cx="6.8064" cy="48.3885" rx="1.7273" ry="1.70535" fill="#00D6E3"/>
</svg>
