<svg width="185" height="36" viewBox="0 0 185 36" fill="none" xmlns="http://www.w3.org/2000/svg">
<g opacity="0.5">
<path d="M32.8193 31.9404H0V26.2327H13.1716V21.7324H3.84172V2.41406H28.9776V21.6227H19.5379V26.123H32.7095V31.9404H32.8193ZM22.721 15.915V8.23153H10.0982V15.915H22.721Z" fill="white"/>
<path d="M69.041 21.8437V27.5514H55.8693V35.8935H49.3933V27.5514H36.2217V21.8437H69.041ZM40.2829 0.878906H64.2114V6.58661H46.5394V12.6236H65.4188V18.3313H40.2829V0.878906Z" fill="white"/>
<path d="M101.422 25.5749V31.1728H73.4326V25.5749H101.422ZM85.1773 21.7332C83.6406 21.7332 82.3235 21.5136 81.0063 20.8551C79.6891 20.3062 78.5915 19.6477 77.6036 18.6598C76.6158 17.7817 75.8474 16.6841 75.2986 15.3669C74.7498 14.1595 74.4205 12.8423 74.4205 11.3056C74.4205 9.87872 74.64 8.56155 75.2986 7.24439C75.8474 6.03699 76.6158 4.93936 77.6036 3.95149C78.4817 3.07338 79.5794 2.30503 81.0063 1.75622C82.3235 1.31716 83.7504 1.09764 85.1773 1.09764C86.6042 1.09764 88.0312 1.31716 89.3483 1.86598C90.5557 2.4148 91.7631 3.18314 92.751 4.06125C93.6291 5.04912 94.3974 6.03699 95.056 7.35415C95.6048 8.67132 95.9341 9.98848 95.9341 11.4154C95.9341 12.8423 95.6048 14.1595 95.056 15.4767C94.3974 16.7938 93.7389 17.8915 92.751 18.7696C91.7631 19.7574 90.6655 20.416 89.3483 20.9648C88.0312 21.5136 86.6042 21.7332 85.1773 21.7332ZM85.1773 6.80534C83.8601 6.80534 82.8723 7.24439 81.9942 8.1225C81.1161 9.00061 80.677 10.0982 80.677 11.4154C80.677 12.7326 81.1161 13.8302 81.9942 14.7083C82.8723 15.5864 83.8601 16.0255 85.1773 16.0255C85.7261 16.0255 86.2749 15.9157 86.9335 15.6962C87.4823 15.4767 87.9214 15.1474 88.3605 14.7083C88.7995 14.2693 89.019 13.8302 89.3483 13.1716C89.5679 12.6228 89.6776 12.074 89.6776 11.4154C89.6776 10.7568 89.5679 10.208 89.3483 9.65919C89.1288 9.11037 88.7995 8.56155 88.3605 8.1225C87.9214 7.68345 87.4823 7.46392 86.9335 7.13463C86.3847 6.9151 85.7261 6.80534 85.1773 6.80534ZM106.801 35.8927H100.544V0H106.801V35.8927Z" fill="white"/>
<path d="M144.12 21.8429V27.5506H130.948V35.8927H124.472V27.5506H111.301V21.8429H144.12ZM121.399 0V5.15888H133.912V0H140.169V18.4403H115.033V0H121.399ZM121.399 10.0982V13.5009H133.912V10.0982H121.399Z" fill="white"/>
<path d="M164.645 28.8678H158.169V20.5258H146.754V14.7083H158.169V9.65919H146.754V3.73196H164.645V28.8678ZM177.927 17.6719H174.305V35.8927H168.268V0H174.305V12.074H177.927V0H184.073V35.8927H177.927V17.6719Z" fill="white"/>
</g>
</svg>
