<svg width="32" height="32" viewBox="0 0 32 32" fill="none" xmlns="http://www.w3.org/2000/svg">
<circle cx="15.9997" cy="16.0007" r="14.1667" stroke="#9A9A9A"/>
<path fill-rule="evenodd" clip-rule="evenodd" d="M12.601 18.9327H19.401V13.066C19.401 11.1882 17.8787 9.66602 16.001 9.66602C14.1232 9.66602 12.601 11.1882 12.601 13.066V18.9327ZM20.401 19.0048C21.2464 19.2384 21.8671 20.0131 21.8671 20.9327V21.3327C21.8671 22.4373 20.9717 23.3327 19.8671 23.3327H12.1338C11.0292 23.3327 10.1338 22.4373 10.1338 21.3327V20.9327C10.1338 20.0127 10.7551 19.2377 11.601 19.0045V13.066C11.601 10.636 13.5709 8.66602 16.001 8.66602C18.431 8.66602 20.401 10.636 20.401 13.066V19.0048ZM11.601 20.0864V20.3993H12.601H19.401H20.401V20.087C20.6811 20.2642 20.8671 20.5768 20.8671 20.9327V21.3327C20.8671 21.885 20.4194 22.3327 19.8671 22.3327H12.1338C11.5815 22.3327 11.1338 21.885 11.1338 21.3327V20.9327C11.1338 20.5763 11.3203 20.2634 11.601 20.0864Z" fill="#9A9A9A"/>
</svg>
