<svg width="16" height="14" viewBox="0 0 16 14" fill="none" xmlns="http://www.w3.org/2000/svg">
<path fill-rule="evenodd" clip-rule="evenodd" d="M8.47678 0.300246C8.87577 -0.100082 9.52266 -0.100082 9.92165 0.300246L15.7011 6.09911C15.9457 6.34452 16.0404 6.68341 15.9851 7.00116C16.0395 7.31825 15.9447 7.65608 15.7007 7.9009L9.92122 13.6997C9.52223 14.1001 8.87534 14.1001 8.47634 13.6997C8.07735 13.2994 8.07735 12.6503 8.47634 12.25L12.9351 7.77635H1.0251C0.458953 7.77635 0 7.3174 0 6.75125C0 6.18511 0.458953 5.72615 1.0251 5.72615H12.4397L8.47678 1.74996C8.0778 1.34963 8.0778 0.700574 8.47678 0.300246Z" fill="white"/>
</svg>
