<svg width="32" height="32" viewBox="0 0 32 32" fill="none" xmlns="http://www.w3.org/2000/svg">
<circle cx="15.9997" cy="16.0007" r="14.1667" stroke="#9A9A9A"/>
<path d="M10.6318 12.578C10.6318 12.0441 11.0646 11.6113 11.5985 11.6113H20.3985C20.9324 11.6113 21.3652 12.0441 21.3652 12.578C21.3652 13.1119 20.9324 13.5447 20.3985 13.5447H11.5985C11.0646 13.5447 10.6318 13.1119 10.6318 12.578Z" stroke="#9A9A9A"/>
<path d="M13.5684 11.1562C13.5684 10.3278 14.2399 9.65625 15.0684 9.65625H16.935C17.7635 9.65625 18.435 10.3278 18.435 11.1562V11.5896H13.5684V11.1562Z" stroke="#9A9A9A"/>
<path d="M11.6104 13.5664H20.3881V20.8442C20.3881 21.6726 19.7166 22.3442 18.8881 22.3442H13.1104C12.2819 22.3442 11.6104 21.6726 11.6104 20.8442V13.5664Z" stroke="#9A9A9A"/>
<line x1="14.5371" y1="16.5" x2="14.5371" y2="19.4111" stroke="#9A9A9A" stroke-linecap="round"/>
<line x1="17.4697" y1="16.5" x2="17.4697" y2="19.4111" stroke="#9A9A9A" stroke-linecap="round"/>
<line x1="16.5" y1="9.65625" x2="16.5" y2="9.63403" stroke="#9A9A9A" stroke-linecap="round"/>
</svg>
