<svg width="100" height="20" viewBox="0 0 100 20" fill="none" xmlns="http://www.w3.org/2000/svg">
<path opacity="0.5" fill-rule="evenodd" clip-rule="evenodd" d="M54.6225 17.3701H39.8938V14.2508H54.6225V0H58.0214V20H54.6225V17.3701ZM44.0083 11.6208C44.7239 11.9878 45.4394 12.1101 46.2742 12.1101C47.0494 12.1101 47.8246 11.9878 48.5402 11.682C49.2558 11.3762 49.8521 11.0092 50.3887 10.4587C50.9254 9.96943 51.2832 9.35781 51.641 8.62387C51.9391 7.88992 52.118 7.15597 52.118 6.36086C52.118 5.56576 51.9391 4.83181 51.641 4.09786C51.2832 3.36392 50.8658 2.81346 50.3887 2.263C49.8521 1.7737 49.1961 1.34557 48.5402 1.03976C47.8246 0.733946 47.0494 0.611622 46.2742 0.611622C45.4991 0.611622 44.7239 0.733946 44.0083 0.978595C43.2331 1.28441 42.6368 1.71254 42.1597 2.20184C41.6231 2.7523 41.2057 3.36392 40.9075 4.0367C40.5497 4.77065 40.4305 5.50459 40.4305 6.2997C40.4305 7.15597 40.6094 7.88992 40.9075 8.5627C41.2057 9.29665 41.6231 9.90827 42.1597 10.3976C42.6964 10.948 43.2927 11.315 44.0083 11.6208ZM44.545 4.526C45.022 4.0367 45.5587 3.79205 46.2742 3.79205C46.5724 3.79205 46.9302 3.85322 47.2283 3.97554C47.2795 4.00703 47.3289 4.03671 47.3768 4.06552C47.6083 4.20461 47.8059 4.32333 48.0035 4.526C48.242 4.77065 48.4209 5.07646 48.5402 5.38227C48.6595 5.68808 48.7191 5.99389 48.7191 6.36086C48.7191 6.72784 48.6595 7.03365 48.5402 7.33946C48.3613 7.70643 48.242 7.95108 48.0035 8.19573C47.765 8.44038 47.5265 8.62387 47.2283 8.74619C46.8705 8.86851 46.5724 8.92968 46.2742 8.92968C45.5587 8.92968 45.022 8.68503 44.545 8.19573C44.0679 7.70643 43.8294 7.09481 43.8294 6.36086C43.8294 5.62692 44.0679 5.0153 44.545 4.526ZM37.5084 12.1703V15.3507H30.3528V19.999H26.8346V15.3507H19.679V12.1703H37.5084ZM21.8853 0.488281H34.8847V3.66871H25.2842V7.03263H35.5406V10.2131H21.8853V0.488281ZM17.7698 17.8003H0V14.6198H7.15564V12.1122H2.08706V1.34766H15.7424V12.051H10.6142V14.5587H17.7698V17.8003ZM12.3435 8.8706V4.58925H5.48599V8.8706H12.3435ZM78.2958 12.1713V15.3517H71.1401V20H67.6219V15.3517H60.4663V12.1713H78.2958ZM65.9523 0V2.87462H72.7502V0H76.1491V10.2752H62.4937V0H65.9523ZM65.9523 5.62692V7.52295H72.7502V5.62692H65.9523ZM85.9269 16.0856H89.4451V2.07951H79.7253V5.38227H85.9269V8.19573H79.7253V11.4373H85.9269V16.0856ZM94.6926 9.84711H96.6604V20H99.9997V0H96.6604V6.72784H94.6926V0H91.4129V20H94.6926V9.84711Z" fill="white"/>
</svg>
