<svg width="24" height="24" viewBox="0 0 24 24" fill="none" xmlns="http://www.w3.org/2000/svg">
<path fill-rule="evenodd" clip-rule="evenodd" d="M6.34338 6.34315C5.95285 6.73367 5.95285 7.36684 6.34338 7.75736L10.586 12L6.34338 16.2426C5.95285 16.6332 5.95285 17.2663 6.34338 17.6569C6.7339 18.0474 7.36707 18.0474 7.75759 17.6569L12.0002 13.4142L16.2429 17.6569C16.6334 18.0474 17.2666 18.0474 17.6571 17.6569C18.0476 17.2663 18.0476 16.6332 17.6571 16.2426L13.4144 12L17.6571 7.75736C18.0476 7.36683 18.0476 6.73367 17.6571 6.34315C17.2666 5.95262 16.6334 5.95262 16.2429 6.34315L12.0002 10.5858L7.75759 6.34315C7.36707 5.95262 6.7339 5.95262 6.34338 6.34315Z" fill="white"/>
</svg>
