<svg width="180" height="29" viewBox="0 0 180 29" fill="none" xmlns="http://www.w3.org/2000/svg">
<path d="M72.0503 25.1916H48.6777V21.078H58.0891V17.8371H51.4201V4.1875H69.3702V17.8371H62.6389V21.078H72.0503V25.1916ZM64.8827 13.7858V8.30107H55.9076V13.7858H64.8827Z" fill="white"/>
<path d="M97.9153 17.0522V21.1657H88.504V27.0868H83.8918V21.1657H74.4805V17.0522H97.9153ZM77.4098 2.09375H94.425V6.20732H81.835V10.5702H95.2976V14.6838H77.4098V2.09375Z" fill="white"/>
<path d="M121.038 20.2932V24.2821H101.031V20.2932H121.038ZM109.445 17.6131C108.386 17.6131 107.389 17.4261 106.516 16.9898C105.581 16.6159 104.771 16.1173 104.148 15.4317C103.4 14.8084 102.839 13.9982 102.465 13.1256C102.028 12.253 101.841 11.3181 101.841 10.2586C101.841 9.26133 102.028 8.2641 102.465 7.39152C102.839 6.51895 103.4 5.77103 104.148 5.08543C104.833 4.39984 105.581 3.90123 106.516 3.46494C107.451 3.09098 108.386 2.904 109.445 2.904C110.505 2.904 111.44 3.09098 112.375 3.46494C113.247 3.90123 114.058 4.39984 114.743 5.08543C115.429 5.77103 115.927 6.51895 116.364 7.39152C116.738 8.32642 116.987 9.26133 116.987 10.2586C116.987 11.3181 116.738 12.253 116.364 13.1256C115.927 14.0605 115.366 14.8084 114.743 15.4317C114.058 16.1173 113.247 16.6159 112.375 16.9898C111.44 17.4261 110.505 17.6131 109.445 17.6131ZM109.445 6.95524C108.51 6.95524 107.763 7.26687 107.202 7.89014C106.578 8.57573 106.267 9.32365 106.267 10.2586C106.267 11.1935 106.578 11.9414 107.202 12.5646C107.825 13.1879 108.573 13.4995 109.445 13.4995C109.882 13.4995 110.256 13.4372 110.692 13.2502C111.066 13.1256 111.377 12.8763 111.689 12.5646C112.001 12.253 112.188 11.9414 112.375 11.5051C112.562 11.1311 112.624 10.6948 112.624 10.2586C112.624 9.82227 112.499 9.38598 112.375 8.94969C112.188 8.57573 111.938 8.20177 111.689 7.89014C111.377 7.5785 111.066 7.39152 110.692 7.20454C110.256 7.01756 109.882 6.95524 109.445 6.95524ZM124.902 27.6477H120.415V2.09375H124.902V27.6477Z" fill="white"/>
<path d="M151.454 17.2143V21.3279H142.043V27.2489H137.431V21.3279H128.02V17.2143H151.454ZM144.162 5.30992V1.57031H148.65V14.7213H130.7V1.63264H135.187V5.37224L144.162 5.30992ZM135.249 5.30992H144.224H135.249ZM135.249 8.80021V11.231H144.224V8.80021H135.249Z" fill="white"/>
<path d="M166.101 22.6616H161.489V16.6782H153.387V12.5023H161.489V8.94969H153.387V4.71147H166.101V22.6616ZM175.575 14.6838H173.02V27.6477H168.657V2.09375H173.02V10.6948H175.575V2.09375H180V27.71H175.575V14.6838Z" fill="white"/>
<path d="M6.21697 13.6088H0V0H16.7492V13.6088H10.4591H6.21697ZM12.5802 9.78359V3.82516H4.16902V9.78359H12.5802Z" fill="white"/>
<path d="M35.2194 28.6241H30.9999V26.0495H18.8418V22.259H30.9999V19.0407H18.8418V15.1787H35.2194V28.6241Z" fill="white"/>
<rect x="18.8418" y="9.42139" width="16.2258" height="4.18731" fill="white"/>
<rect x="18.8418" width="16.2258" height="4.18731" fill="white"/>
<rect x="4.1875" y="15.1787" width="13.6088" height="4.18731" transform="rotate(90 4.1875 15.1787)" fill="white"/>
<rect x="16.75" y="15.1787" width="13.6088" height="4.18731" transform="rotate(90 16.75 15.1787)" fill="white"/>
</svg>
